# xmcd
#
# Track frame offsets:
#	150
#	21600
#	38925
#	65550
#	94125
#	115575
#
# Disc length: 1790 seconds
#
# Revision: 2
# Processed by: cddbd v1.5.2PL0 Copyright (c) Steve Scherf et al.
# Submitted via: EasyCDDAExtractor 7.0.5.4
#
DISCID=4e06fc06
DTITLE=Project P. Feat The Infinit One - I Give You All My Love [CDm '94)
DYEAR=1994
DGENRE=Eurodance
TTITLE0=I Give You All My Love ( Dance Mix)
TTITLE1=I Give You All My Love (Single Mix)
TTITLE2=I Give You All My Love ( Softmaxi Mix)
TTITLE3=I Give You All My Love ( Trance Mix)
TTITLE4=I Give You All My Love ( Club Mix)
TTITLE5=I Give You All My Love ( Sofft Radio Mix)
EXTD=
EXTT0=
EXTT1=
EXTT2=
EXTT3=
EXTT4=
EXTT5=
PLAYORDER=
